<svg width="26" height="26" viewBox="0 0 26 26" fill="none" xmlns="http://www.w3.org/2000/svg">
<path d="M20.5833 14.7182V10.8334C20.5833 7.34833 18.2163 4.4125 15.0096 3.52958C14.6922 2.73008 13.9165 2.16675 13 2.16675C12.0835 2.16675 11.3078 2.73008 10.9904 3.52958C7.78375 4.41358 5.41667 7.34833 5.41667 10.8334V14.7182L3.56742 16.5675C3.46662 16.6679 3.38668 16.7873 3.33221 16.9188C3.27773 17.0502 3.24979 17.1911 3.25 17.3334V19.5001C3.25 19.7874 3.36414 20.063 3.5673 20.2661C3.77047 20.4693 4.04602 20.5834 4.33333 20.5834H21.6667C21.954 20.5834 22.2295 20.4693 22.4327 20.2661C22.6359 20.063 22.75 19.7874 22.75 19.5001V17.3334C22.7502 17.1911 22.7223 17.0502 22.6678 16.9188C22.6133 16.7873 22.5334 16.6679 22.4326 16.5675L20.5833 14.7182ZM20.5833 18.4167H5.41667V17.7819L7.26592 15.9327C7.36671 15.8322 7.44665 15.7129 7.50113 15.5814C7.5556 15.45 7.58354 15.309 7.58333 15.1667V10.8334C7.58333 7.84666 10.0133 5.41675 13 5.41675C15.9868 5.41675 18.4167 7.84666 18.4167 10.8334V15.1667C18.4167 15.4549 18.5304 15.7301 18.7341 15.9327L20.5833 17.7819V18.4167ZM13 23.8334C13.6709 23.8343 14.3254 23.6261 14.8725 23.2378C15.4197 22.8495 15.8322 22.3003 16.0528 21.6667H9.94717C10.1678 22.3003 10.5804 22.8495 11.1275 23.2378C11.6746 23.6261 12.3291 23.8343 13 23.8334V23.8334Z" fill="white"/>
<circle cx="22.3888" cy="2.88883" r="2.16667" fill="white"/>
</svg>
