<svg width="3" height="11" viewBox="0 0 3 11" fill="none" xmlns="http://www.w3.org/2000/svg">
<path d="M0.679688 1.38379C0.679688 1.60135 0.766113 1.81 0.919951 1.96384C1.07379 2.11768 1.28244 2.2041 1.5 2.2041C1.71756 2.2041 1.92621 2.11768 2.08005 1.96384C2.23389 1.81 2.32031 1.60135 2.32031 1.38379C2.32031 1.16623 2.23389 0.957579 2.08005 0.803741C1.92621 0.649902 1.71756 0.563477 1.5 0.563477C1.28244 0.563477 1.07379 0.649902 0.919951 0.803741C0.766113 0.957579 0.679688 1.16623 0.679688 1.38379ZM0.679688 5.48535C0.679688 5.70291 0.766113 5.91156 0.919951 6.0654C1.07379 6.21924 1.28244 6.30566 1.5 6.30566C1.71756 6.30566 1.92621 6.21924 2.08005 6.0654C2.23389 5.91156 2.32031 5.70291 2.32031 5.48535C2.32031 5.26779 2.23389 5.05914 2.08005 4.9053C1.92621 4.75146 1.71756 4.66504 1.5 4.66504C1.28244 4.66504 1.07379 4.75146 0.919951 4.9053C0.766113 5.05914 0.679688 5.26779 0.679688 5.48535ZM0.679688 9.58691C0.679688 9.80447 0.766113 10.0131 0.919951 10.167C1.07379 10.3208 1.28244 10.4072 1.5 10.4072C1.71756 10.4072 1.92621 10.3208 2.08005 10.167C2.23389 10.0131 2.32031 9.80447 2.32031 9.58691C2.32031 9.36935 2.23389 9.1607 2.08005 9.00687C1.92621 8.85303 1.71756 8.7666 1.5 8.7666C1.28244 8.7666 1.07379 8.85303 0.919951 9.00687C0.766113 9.1607 0.679688 9.36935 0.679688 9.58691Z" fill="white"/>
</svg>
