<svg width="19" height="19" viewBox="0 0 19 19" fill="none" xmlns="http://www.w3.org/2000/svg">
<path d="M16.0996 15.1289L18.785 17.8129C18.9102 17.9425 18.9795 18.1162 18.9779 18.2964C18.9764 18.4767 18.9041 18.6491 18.7766 18.7766C18.6491 18.9041 18.4767 18.9764 18.2964 18.9779C18.1162 18.9795 17.9425 18.9102 17.8129 18.785L15.1275 16.0996C13.3727 17.6031 11.1037 18.3685 8.79673 18.2351C6.48976 18.1018 4.32411 17.08 2.7542 15.3844C1.1843 13.6887 0.332184 11.4509 0.376657 9.14049C0.421131 6.8301 1.35874 4.62673 2.99273 2.99273C4.62673 1.35874 6.8301 0.421131 9.14049 0.376657C11.4509 0.332184 13.6887 1.1843 15.3844 2.7542C17.08 4.32411 18.1018 6.48976 18.2351 8.79673C18.3685 11.1037 17.6031 13.3727 16.0996 15.1275V15.1289ZM9.31261 16.8751C11.3183 16.8751 13.2419 16.0784 14.6601 14.6601C16.0784 13.2419 16.8751 11.3183 16.8751 9.31261C16.8751 7.30691 16.0784 5.38336 14.6601 3.96512C13.2419 2.54687 11.3183 1.75011 9.31261 1.75011C7.30691 1.75011 5.38336 2.54687 3.96512 3.96512C2.54687 5.38336 1.75011 7.30691 1.75011 9.31261C1.75011 11.3183 2.54687 13.2419 3.96512 14.6601C5.38336 16.0784 7.30691 16.8751 9.31261 16.8751Z" fill="white"/>
</svg>
