<svg width="10" height="10" viewBox="0 0 10 10" fill="none" xmlns="http://www.w3.org/2000/svg">
<path d="M5.0955 8.999C5.16116 8.99746 5.22648 9.00886 5.28774 9.03256C5.34899 9.05626 5.40497 9.0918 5.45249 9.13714C5.50001 9.18248 5.53814 9.23673 5.56469 9.2968C5.59125 9.35687 5.60571 9.42159 5.60725 9.48725C5.60879 9.55291 5.59739 9.61823 5.57369 9.67949C5.54998 9.74074 5.51445 9.79672 5.46911 9.84424C5.42377 9.89176 5.36952 9.92989 5.30945 9.95644C5.24937 9.983 5.18466 9.99746 5.119 9.999L5 10L4.881 9.9985C4.81534 9.99696 4.75062 9.9825 4.69055 9.95594C4.63048 9.92939 4.57623 9.89126 4.53089 9.84374C4.48555 9.79622 4.45002 9.74024 4.42631 9.67899C4.40261 9.61773 4.39121 9.55241 4.39275 9.48675C4.39429 9.42109 4.40875 9.35637 4.43531 9.2963C4.46186 9.23623 4.49998 9.18197 4.5475 9.13664C4.59502 9.0913 4.65101 9.05576 4.71226 9.03206C4.77352 9.00836 4.83884 8.99696 4.9045 8.9985L5 9L5.0955 8.999ZM7.769 8.5825C7.80326 8.63854 7.82614 8.70077 7.83633 8.76566C7.84653 8.83054 7.84384 8.8968 7.82843 8.96064C7.81301 9.02448 7.78517 9.08466 7.74649 9.13775C7.70781 9.19083 7.65905 9.23577 7.603 9.27C7.53529 9.31129 7.4666 9.35097 7.397 9.389C7.33938 9.42052 7.27612 9.44038 7.21083 9.44744C7.14553 9.45451 7.07949 9.44865 7.01646 9.4302C6.88917 9.39292 6.7819 9.30661 6.71825 9.19025C6.6546 9.07389 6.63978 8.937 6.67705 8.80971C6.71432 8.68242 6.80064 8.57515 6.917 8.5115C6.97276 8.48118 7.02778 8.4495 7.082 8.4165C7.19513 8.34747 7.33104 8.32619 7.45986 8.35731C7.58868 8.38844 7.69987 8.46943 7.769 8.5825ZM2.9185 8.4165C2.9725 8.4495 3.0275 8.4815 3.0835 8.5115C3.19986 8.57522 3.28615 8.68255 3.32338 8.80989C3.3606 8.93723 3.34572 9.07414 3.282 9.1905C3.21828 9.30686 3.11095 9.39315 2.98361 9.43037C2.85627 9.4676 2.71936 9.45272 2.603 9.389C2.53338 9.351 2.46469 9.31133 2.397 9.27C2.28382 9.20084 2.20274 9.08956 2.17161 8.96063C2.14048 8.8317 2.16184 8.69568 2.231 8.5825C2.30015 8.46932 2.41144 8.38824 2.54037 8.35711C2.6693 8.32598 2.80532 8.34734 2.9185 8.4165ZM5 2C5.79565 2 6.55871 2.31607 7.12132 2.87868C7.68393 3.44129 8 4.20435 8 5C8 5.79565 7.68393 6.55871 7.12132 7.12132C6.55871 7.68393 5.79565 8 5 8C4.20435 8 3.44129 7.68393 2.87868 7.12132C2.31607 6.55871 2 5.79565 2 5C2 4.20435 2.31607 3.44129 2.87868 2.87868C3.44129 2.31607 4.20435 2 5 2ZM9.19 6.7185C9.30636 6.78209 9.39269 6.88929 9.43001 7.01654C9.46733 7.14378 9.45258 7.28063 9.389 7.397C9.351 7.467 9.311 7.5355 9.27 7.603C9.23576 7.65904 9.19081 7.70779 9.13773 7.74646C9.08465 7.78513 9.02447 7.81297 8.96063 7.82839C8.8317 7.85952 8.69568 7.83815 8.5825 7.769C8.46932 7.69984 8.38824 7.58856 8.35711 7.45963C8.32598 7.3307 8.34734 7.19468 8.4165 7.0815C8.4495 7.0275 8.4815 6.9725 8.5115 6.9165C8.54307 6.8589 8.58568 6.80809 8.63689 6.76697C8.68811 6.72584 8.74692 6.69521 8.80998 6.67683C8.87303 6.65844 8.93909 6.65265 9.00438 6.6598C9.06968 6.66696 9.13292 6.6869 9.1905 6.7185H9.19ZM1.4885 6.917C1.51882 6.97276 1.5505 7.02778 1.5835 7.082C1.61848 7.13806 1.642 7.20049 1.65271 7.26569C1.66341 7.33089 1.66109 7.39757 1.64587 7.46187C1.63065 7.52617 1.60283 7.58681 1.56404 7.64029C1.52524 7.69378 1.47622 7.73904 1.41982 7.77347C1.36343 7.80789 1.30077 7.8308 1.23546 7.84086C1.17016 7.85093 1.10351 7.84795 1.03936 7.8321C0.975216 7.81624 0.914849 7.78784 0.861749 7.74851C0.808649 7.70919 0.76387 7.65973 0.73 7.603C0.688701 7.53529 0.649023 7.4666 0.611 7.397C0.547348 7.28064 0.532528 7.14375 0.569801 7.01646C0.607074 6.88917 0.693386 6.7819 0.80975 6.71825C0.926114 6.6546 1.063 6.63978 1.19029 6.67705C1.31758 6.71432 1.42485 6.80064 1.4885 6.917ZM5 3C4.46957 3 3.96086 3.21071 3.58579 3.58579C3.21071 3.96086 3 4.46957 3 5C3 5.53043 3.21071 6.03914 3.58579 6.41421C3.96086 6.78929 4.46957 7 5 7C5.53043 7 6.03914 6.78929 6.41421 6.41421C6.78929 6.03914 7 5.53043 7 5C7 4.46957 6.78929 3.96086 6.41421 3.58579C6.03914 3.21071 5.53043 3 5 3ZM5 4C5.26522 4 5.51957 4.10536 5.70711 4.29289C5.89464 4.48043 6 4.73478 6 5C6 5.26522 5.89464 5.51957 5.70711 5.70711C5.51957 5.89464 5.26522 6 5 6C4.73478 6 4.48043 5.89464 4.29289 5.70711C4.10536 5.51957 4 5.26522 4 5C4 4.73478 4.10536 4.48043 4.29289 4.29289C4.48043 4.10536 4.73478 4 5 4ZM0.513 4.3925C0.578667 4.39406 0.643383 4.40854 0.703451 4.43511C0.76352 4.46169 0.817763 4.49984 0.863082 4.54739C0.9084 4.59494 0.943906 4.65095 0.967571 4.71222C0.991235 4.7735 1.00259 4.83883 1.001 4.9045L1 5C1 5.032 1 5.064 1.001 5.0955C1.00412 5.22811 0.954426 5.35652 0.862862 5.45249C0.771297 5.54847 0.645358 5.60413 0.51275 5.60725C0.380142 5.61037 0.251727 5.56068 0.155755 5.46911C0.0597834 5.37755 0.00411634 5.25161 0.00100005 5.119L0 5C0 4.96 1.04774e-08 4.92 0.00150001 4.881C0.00299296 4.81533 0.0174096 4.7506 0.0439262 4.69051C0.0704429 4.63042 0.10854 4.57614 0.156041 4.53077C0.203541 4.48541 0.259515 4.44985 0.320763 4.42612C0.382011 4.4024 0.447335 4.39097 0.513 4.3925ZM9.487 4.3925C9.55266 4.39097 9.61799 4.4024 9.67924 4.42612C9.74048 4.44985 9.79646 4.48541 9.84396 4.53077C9.89146 4.57614 9.92956 4.63042 9.95607 4.69051C9.98259 4.7506 9.99701 4.81533 9.9985 4.881L10 5L9.9985 5.119C9.99696 5.18466 9.9825 5.24937 9.95594 5.30945C9.92939 5.36952 9.89126 5.42377 9.84374 5.46911C9.79622 5.51445 9.74024 5.54998 9.67899 5.57369C9.61773 5.59739 9.55241 5.60879 9.48675 5.60725C9.42109 5.60571 9.35637 5.59125 9.2963 5.56469C9.23623 5.53814 9.18197 5.50001 9.13664 5.45249C9.0913 5.40497 9.05576 5.34899 9.03206 5.28774C9.00836 5.22648 8.99696 5.16116 8.9985 5.0955L9 5L8.999 4.9045C8.9974 4.83883 9.00876 4.7735 9.03243 4.71222C9.05609 4.65095 9.0916 4.59494 9.13692 4.54739C9.18224 4.49984 9.23648 4.46169 9.29655 4.43511C9.35662 4.40854 9.42133 4.39406 9.487 4.3925ZM9.27 2.397C9.311 2.4645 9.351 2.5335 9.389 2.603C9.42052 2.66062 9.44038 2.72388 9.44744 2.78917C9.45451 2.85446 9.44865 2.92051 9.4302 2.98354C9.41174 3.04656 9.38105 3.10534 9.33988 3.15651C9.29871 3.20767 9.24787 3.25023 9.19025 3.28175C9.07389 3.3454 8.937 3.36022 8.80971 3.32295C8.68242 3.28568 8.57515 3.19936 8.5115 3.083C8.48115 3.02725 8.44947 2.97224 8.4165 2.918C8.38152 2.86194 8.358 2.79951 8.34729 2.73431C8.33659 2.66911 8.33891 2.60243 8.35413 2.53813C8.36935 2.47383 8.39716 2.41319 8.43596 2.35971C8.47476 2.30622 8.52378 2.26096 8.58017 2.22653C8.63657 2.1921 8.69923 2.1692 8.76454 2.15913C8.82984 2.14907 8.89649 2.15205 8.96064 2.1679C9.02478 2.18375 9.08515 2.21216 9.13825 2.25149C9.19135 2.29081 9.23613 2.34027 9.27 2.397ZM1.4175 2.231C1.47355 2.26523 1.52231 2.31017 1.56099 2.36325C1.59967 2.41633 1.62751 2.47652 1.64293 2.54036C1.65834 2.6042 1.66103 2.67046 1.65083 2.73534C1.64064 2.80022 1.61776 2.86246 1.5835 2.9185C1.5505 2.9725 1.5185 3.0275 1.4885 3.0835C1.42478 3.19986 1.31745 3.28615 1.19011 3.32338C1.06277 3.3606 0.925864 3.34572 0.8095 3.282C0.693136 3.21828 0.60685 3.11095 0.569624 2.98361C0.532399 2.85627 0.547282 2.71936 0.611 2.603C0.649 2.533 0.689 2.4645 0.73 2.397C0.764232 2.34095 0.809172 2.29219 0.862253 2.25351C0.915334 2.21483 0.975516 2.18699 1.03936 2.17157C1.1032 2.15616 1.16946 2.15347 1.23434 2.16367C1.29922 2.17386 1.36146 2.19674 1.4175 2.231ZM7.397 0.611C7.467 0.649 7.5355 0.689 7.603 0.73C7.71618 0.799155 7.79725 0.910439 7.82839 1.03937C7.85952 1.1683 7.83815 1.30432 7.769 1.4175C7.69984 1.53068 7.58856 1.61175 7.45963 1.64289C7.3307 1.67402 7.19468 1.65265 7.0815 1.5835C7.02726 1.55052 6.97225 1.51885 6.9165 1.4885C6.80014 1.42478 6.71385 1.31745 6.67662 1.19011C6.6394 1.06277 6.65428 0.925864 6.718 0.8095C6.78172 0.693136 6.88905 0.60685 7.01639 0.569624C7.14373 0.532399 7.28064 0.547282 7.397 0.611ZM3.282 0.8095C3.31356 0.86714 3.33345 0.930437 3.34053 0.995769C3.3476 1.0611 3.34173 1.12719 3.32325 1.19025C3.30477 1.25331 3.27404 1.31211 3.23281 1.36329C3.19159 1.41447 3.14068 1.45701 3.083 1.4885C3.02725 1.51885 2.97224 1.55053 2.918 1.5835C2.80497 1.64863 2.67095 1.66701 2.54456 1.63471C2.41816 1.60241 2.3094 1.52199 2.24148 1.41061C2.17355 1.29923 2.15185 1.16572 2.181 1.03856C2.21015 0.9114 2.28784 0.80067 2.3975 0.73C2.465 0.689 2.534 0.649 2.6035 0.611C2.7198 0.54738 2.85661 0.532552 2.98385 0.569775C3.11108 0.606998 3.21832 0.693226 3.282 0.8095ZM5.119 0.00150001C5.25161 0.00461631 5.37755 0.0602834 5.46911 0.156255C5.56068 0.252227 5.61037 0.380642 5.60725 0.51325C5.60413 0.645858 5.54847 0.771797 5.45249 0.863362C5.35652 0.954926 5.22811 1.00462 5.0955 1.0015L5 1L4.9045 1.001C4.77189 1.00412 4.64348 0.954426 4.5475 0.862862C4.45153 0.771297 4.39587 0.645358 4.39275 0.51275C4.38963 0.380142 4.43932 0.251727 4.53089 0.155755C4.62245 0.0597834 4.74839 0.00411634 4.881 0.00100005L5 0L5.119 0.00150001Z" fill="#D4FF1E"/>
</svg>
