<svg width="32" height="32" viewBox="0 0 32 32" fill="none" xmlns="http://www.w3.org/2000/svg">
<g filter="url(#filter0_b_1004_12356)">
<circle cx="16" cy="16" r="16" fill="white" fill-opacity="0.8"/>
</g>
<g clip-path="url(#clip0_1004_12356)">
<path d="M16.7833 16.0002L21.3889 11.3947C21.4799 11.2884 21.5275 11.1517 21.5221 11.0118C21.5167 10.872 21.4587 10.7394 21.3598 10.6405C21.2608 10.5415 21.1282 10.4836 20.9884 10.4781C20.8486 10.4727 20.7118 10.5203 20.6056 10.6113L16 15.2169L11.3945 10.6058C11.2898 10.5012 11.148 10.4424 11 10.4424C10.8521 10.4424 10.7102 10.5012 10.6056 10.6058C10.501 10.7104 10.4422 10.8523 10.4422 11.0002C10.4422 11.1482 10.501 11.29 10.6056 11.3947L15.2167 16.0002L10.6056 20.6058C10.5474 20.6556 10.5002 20.7169 10.4668 20.7858C10.4335 20.8547 10.4147 20.9298 10.4118 21.0063C10.4088 21.0828 10.4217 21.1591 10.4497 21.2304C10.4776 21.3017 10.52 21.3664 10.5741 21.4206C10.6282 21.4747 10.693 21.5171 10.7643 21.545C10.8356 21.5729 10.9119 21.5858 10.9884 21.5829C11.0649 21.5799 11.14 21.5612 11.2089 21.5278C11.2778 21.4945 11.3391 21.4473 11.3889 21.3891L16 16.7835L20.6056 21.3891C20.7118 21.4801 20.8486 21.5277 20.9884 21.5223C21.1282 21.5169 21.2608 21.4589 21.3598 21.36C21.4587 21.261 21.5167 21.1284 21.5221 20.9886C21.5275 20.8488 21.4799 20.712 21.3889 20.6058L16.7833 16.0002Z" fill="#131313"/>
</g>
<defs>
<filter id="filter0_b_1004_12356" x="-30" y="-30" width="92" height="92" filterUnits="userSpaceOnUse" color-interpolation-filters="sRGB">
<feFlood flood-opacity="0" result="BackgroundImageFix"/>
<feGaussianBlur in="BackgroundImageFix" stdDeviation="15"/>
<feComposite in2="SourceAlpha" operator="in" result="effect1_backgroundBlur_1004_12356"/>
<feBlend mode="normal" in="SourceGraphic" in2="effect1_backgroundBlur_1004_12356" result="shape"/>
</filter>
<clipPath id="clip0_1004_12356">
<rect width="20" height="20" fill="white" transform="translate(6 6)"/>
</clipPath>
</defs>
</svg>
