<svg width="117" height="24" viewBox="0 0 117 24" fill="none" xmlns="http://www.w3.org/2000/svg">
<rect width="117" height="24" rx="10" fill="#8A99A8" fill-opacity="0.25"/>
<path fill-rule="evenodd" clip-rule="evenodd" d="M20.6666 11.9999V18.6666H13.9999C10.318 18.6666 7.33325 15.6818 7.33325 11.9999C7.33325 8.31802 10.318 5.33325 13.9999 5.33325C17.6818 5.33325 20.6666 8.31802 20.6666 11.9999ZM13.9999 15.3333C15.8409 15.3333 17.3333 13.8409 17.3333 11.9999C17.3333 10.159 15.8409 8.66659 13.9999 8.66659C12.159 8.66659 10.6666 10.159 10.6666 11.9999C10.6666 13.8409 12.159 15.3333 13.9999 15.3333Z" fill="white" fill-opacity="0.7"/>
<path d="M32.4146 14.296H29.0186L28.4186 16H26.6306L29.7506 7.624H31.6826L34.7906 16H33.0026L32.4146 14.296ZM31.9586 13.012L30.7106 9.436L29.4626 13.012H31.9586ZM42.4839 13.684C42.4839 14.116 42.3759 14.516 42.1599 14.884C41.9439 15.244 41.6239 15.536 41.1999 15.76C40.7759 15.976 40.2599 16.084 39.6519 16.084C39.0519 16.084 38.5159 15.984 38.0439 15.784C37.5719 15.576 37.1919 15.28 36.9039 14.896C36.6239 14.512 36.4639 14.064 36.4239 13.552H38.2239C38.2639 13.896 38.3999 14.184 38.6319 14.416C38.8719 14.64 39.1879 14.752 39.5799 14.752C39.9319 14.752 40.1999 14.66 40.3839 14.476C40.5759 14.284 40.6719 14.04 40.6719 13.744C40.6719 13.48 40.5959 13.264 40.4439 13.096C40.2919 12.92 40.0999 12.78 39.8679 12.676C39.6359 12.572 39.3159 12.452 38.9079 12.316C38.3799 12.14 37.9479 11.968 37.6119 11.8C37.2759 11.624 36.9879 11.372 36.7479 11.044C36.5159 10.716 36.3999 10.288 36.3999 9.76C36.3999 9.032 36.6599 8.46 37.1799 8.044C37.7079 7.62 38.4039 7.408 39.2679 7.408C40.1639 7.408 40.8759 7.624 41.4039 8.056C41.9399 8.488 42.2439 9.064 42.3159 9.784H40.4919C40.4439 9.48 40.3159 9.232 40.1079 9.04C39.8999 8.84 39.6159 8.74 39.2559 8.74C38.9439 8.74 38.6919 8.824 38.4999 8.992C38.3079 9.152 38.2119 9.388 38.2119 9.7C38.2119 9.948 38.2839 10.156 38.4279 10.324C38.5799 10.484 38.7679 10.616 38.9919 10.72C39.2239 10.824 39.5359 10.94 39.9279 11.068C40.4719 11.26 40.9119 11.44 41.2479 11.608C41.5919 11.776 41.8839 12.028 42.1239 12.364C42.3639 12.7 42.4839 13.14 42.4839 13.684ZM50.5103 13.684C50.5103 14.116 50.4023 14.516 50.1863 14.884C49.9703 15.244 49.6503 15.536 49.2263 15.76C48.8023 15.976 48.2863 16.084 47.6783 16.084C47.0783 16.084 46.5423 15.984 46.0703 15.784C45.5983 15.576 45.2183 15.28 44.9303 14.896C44.6503 14.512 44.4903 14.064 44.4503 13.552H46.2503C46.2903 13.896 46.4263 14.184 46.6583 14.416C46.8983 14.64 47.2143 14.752 47.6063 14.752C47.9583 14.752 48.2263 14.66 48.4103 14.476C48.6023 14.284 48.6983 14.04 48.6983 13.744C48.6983 13.48 48.6223 13.264 48.4703 13.096C48.3183 12.92 48.1263 12.78 47.8943 12.676C47.6623 12.572 47.3423 12.452 46.9343 12.316C46.4063 12.14 45.9743 11.968 45.6383 11.8C45.3023 11.624 45.0143 11.372 44.7743 11.044C44.5423 10.716 44.4263 10.288 44.4263 9.76C44.4263 9.032 44.6863 8.46 45.2063 8.044C45.7343 7.62 46.4303 7.408 47.2943 7.408C48.1903 7.408 48.9023 7.624 49.4303 8.056C49.9663 8.488 50.2703 9.064 50.3423 9.784H48.5183C48.4703 9.48 48.3423 9.232 48.1343 9.04C47.9263 8.84 47.6423 8.74 47.2823 8.74C46.9703 8.74 46.7183 8.824 46.5263 8.992C46.3343 9.152 46.2383 9.388 46.2383 9.7C46.2383 9.948 46.3103 10.156 46.4543 10.324C46.6063 10.484 46.7943 10.616 47.0183 10.72C47.2503 10.824 47.5623 10.94 47.9543 11.068C48.4983 11.26 48.9383 11.44 49.2743 11.608C49.6183 11.776 49.9103 12.028 50.1503 12.364C50.3903 12.7 50.5103 13.14 50.5103 13.684ZM54.4087 8.872V11.068H57.4087V12.364H54.4087V14.644H57.7687V16H52.7167V7.528H57.7687V8.872H54.4087ZM65.8014 13.684C65.8014 14.116 65.6934 14.516 65.4774 14.884C65.2614 15.244 64.9414 15.536 64.5174 15.76C64.0934 15.976 63.5774 16.084 62.9694 16.084C62.3694 16.084 61.8334 15.984 61.3614 15.784C60.8894 15.576 60.5094 15.28 60.2214 14.896C59.9414 14.512 59.7814 14.064 59.7414 13.552H61.5414C61.5814 13.896 61.7174 14.184 61.9494 14.416C62.1894 14.64 62.5054 14.752 62.8974 14.752C63.2494 14.752 63.5174 14.66 63.7014 14.476C63.8934 14.284 63.9894 14.04 63.9894 13.744C63.9894 13.48 63.9134 13.264 63.7614 13.096C63.6094 12.92 63.4174 12.78 63.1854 12.676C62.9534 12.572 62.6334 12.452 62.2254 12.316C61.6974 12.14 61.2654 11.968 60.9294 11.8C60.5934 11.624 60.3054 11.372 60.0654 11.044C59.8334 10.716 59.7174 10.288 59.7174 9.76C59.7174 9.032 59.9774 8.46 60.4974 8.044C61.0254 7.62 61.7214 7.408 62.5854 7.408C63.4814 7.408 64.1934 7.624 64.7214 8.056C65.2574 8.488 65.5614 9.064 65.6334 9.784H63.8094C63.7614 9.48 63.6334 9.232 63.4254 9.04C63.2174 8.84 62.9334 8.74 62.5734 8.74C62.2614 8.74 62.0094 8.824 61.8174 8.992C61.6254 9.152 61.5294 9.388 61.5294 9.7C61.5294 9.948 61.6014 10.156 61.7454 10.324C61.8974 10.484 62.0854 10.616 62.3094 10.72C62.5414 10.824 62.8534 10.94 63.2454 11.068C63.7894 11.26 64.2294 11.44 64.5654 11.608C64.9094 11.776 65.2014 12.028 65.4414 12.364C65.6814 12.7 65.8014 13.14 65.8014 13.684ZM73.8278 13.684C73.8278 14.116 73.7198 14.516 73.5038 14.884C73.2878 15.244 72.9678 15.536 72.5438 15.76C72.1198 15.976 71.6038 16.084 70.9958 16.084C70.3958 16.084 69.8598 15.984 69.3878 15.784C68.9158 15.576 68.5358 15.28 68.2478 14.896C67.9678 14.512 67.8078 14.064 67.7678 13.552H69.5678C69.6078 13.896 69.7438 14.184 69.9758 14.416C70.2158 14.64 70.5318 14.752 70.9238 14.752C71.2758 14.752 71.5438 14.66 71.7278 14.476C71.9198 14.284 72.0158 14.04 72.0158 13.744C72.0158 13.48 71.9398 13.264 71.7878 13.096C71.6358 12.92 71.4438 12.78 71.2118 12.676C70.9798 12.572 70.6598 12.452 70.2518 12.316C69.7238 12.14 69.2918 11.968 68.9558 11.8C68.6198 11.624 68.3318 11.372 68.0918 11.044C67.8598 10.716 67.7438 10.288 67.7438 9.76C67.7438 9.032 68.0038 8.46 68.5238 8.044C69.0518 7.62 69.7478 7.408 70.6118 7.408C71.5078 7.408 72.2198 7.624 72.7478 8.056C73.2838 8.488 73.5878 9.064 73.6598 9.784H71.8358C71.7878 9.48 71.6598 9.232 71.4518 9.04C71.2438 8.84 70.9598 8.74 70.5998 8.74C70.2878 8.74 70.0358 8.824 69.8438 8.992C69.6518 9.152 69.5558 9.388 69.5558 9.7C69.5558 9.948 69.6278 10.156 69.7718 10.324C69.9238 10.484 70.1118 10.616 70.3358 10.72C70.5678 10.824 70.8798 10.94 71.2718 11.068C71.8158 11.26 72.2558 11.44 72.5918 11.608C72.9358 11.776 73.2278 12.028 73.4678 12.364C73.7078 12.7 73.8278 13.14 73.8278 13.684ZM85.1662 7.624V16H83.4862V10.156L81.3382 16H79.8742L77.7262 10.18V16H76.0342V7.624H78.0862L80.6302 13.924L83.1262 7.624H85.1662ZM89.3502 8.872V11.068H92.3502V12.364H89.3502V14.644H92.7102V16H87.6582V7.528H92.7102V8.872H89.3502ZM102.099 16H100.407L96.6149 10.24V16H94.9229V7.528H96.6149L100.407 13.336V7.528H102.099V16ZM110.35 7.528V8.872H108.01V16H106.318V8.872H103.99V7.528H110.35Z" fill="white" fill-opacity="0.7"/>
</svg>
