<svg width="94" height="24" viewBox="0 0 94 24" fill="none" xmlns="http://www.w3.org/2000/svg">
<rect width="94" height="24" rx="10" fill="#8A99A8" fill-opacity="0.25"/>
<path d="M7.66683 11.0001C7.66683 9.0146 8.58046 7.24251 10.0103 6.0813C10.097 6.01085 10.1122 5.88428 10.0446 5.79532L9.47208 5.04209L9.46931 5.03853C9.40673 4.96032 9.2926 4.94764 9.21439 5.01021C7.45829 6.41512 6.3335 8.57624 6.3335 11.0001C6.3335 13.2684 7.31858 15.3066 8.88428 16.7103C8.93775 16.7582 9.0067 16.817 9.0911 16.8866C9.09451 16.8894 9.09797 16.8922 9.10148 16.8948C9.24807 17.0062 9.45722 16.9777 9.56863 16.8311L9.97242 16.2997C10.0803 16.1577 10.0573 15.9559 9.9202 15.8418C9.84547 15.7797 9.78443 15.727 9.73701 15.6838C8.4651 14.5254 7.66683 12.856 7.66683 11.0001Z" fill="white" fill-opacity="0.7"/>
<path fill-rule="evenodd" clip-rule="evenodd" d="M13.3335 19.0001C13.3335 19.1842 13.4827 19.3334 13.6668 19.3334H14.3335C14.5176 19.3334 14.6668 19.1842 14.6668 19.0001V13.2368C15.6307 12.9499 16.3335 12.0571 16.3335 11.0001C16.3335 9.71141 15.2888 8.66674 14.0002 8.66674C12.7115 8.66674 11.6668 9.71141 11.6668 11.0001C11.6668 12.0571 12.3697 12.9499 13.3335 13.2368V19.0001ZM15.0002 11.0001C15.0002 11.5524 14.5524 12.0001 14.0002 12.0001C13.4479 12.0001 13.0002 11.5524 13.0002 11.0001C13.0002 10.4478 13.4479 10.0001 14.0002 10.0001C14.5524 10.0001 15.0002 10.4478 15.0002 11.0001Z" fill="white" fill-opacity="0.7"/>
<path d="M21.6668 11.0001C21.6668 13.2541 20.6941 15.281 19.1455 16.6838C19.0853 16.7383 19.0065 16.8057 18.9091 16.8862C18.7672 17.0034 18.5571 16.9833 18.4399 16.8414L18.4355 16.8359L18.4315 16.8308L18.0279 16.2997C17.9199 16.1576 17.9429 15.9558 18.08 15.8417C18.1577 15.7771 18.221 15.7225 18.2699 15.6778C19.538 14.5196 20.3335 12.8528 20.3335 11.0001C20.3335 9.14319 19.5344 7.47296 18.2613 6.31451C18.2143 6.2718 18.154 6.21976 18.0802 6.15838C17.943 6.04429 17.92 5.84244 18.0279 5.70039L18.4326 5.16792C18.544 5.02136 18.7531 4.99285 18.8997 5.10424C18.9031 5.10684 18.9065 5.1095 18.9098 5.11223C18.9457 5.14183 18.9769 5.16801 19.0034 5.19078C20.6343 6.59671 21.6668 8.67782 21.6668 11.0001Z" fill="white" fill-opacity="0.7"/>
<path d="M11.4183 8.39654C11.4516 8.3635 11.4936 8.32469 11.5443 8.2801C11.6755 8.16463 11.6953 7.96736 11.5895 7.82817L11.1838 7.2944C11.1797 7.2889 11.1753 7.28354 11.1708 7.27832C11.0506 7.13895 10.8401 7.12347 10.7007 7.24374C10.6813 7.26053 10.6637 7.27596 10.6481 7.29005C9.63607 8.20502 9.00016 9.52829 9.00016 11.0001C9.00016 12.4474 9.61514 13.7512 10.5981 14.6642C10.6268 14.6909 10.6613 14.7216 10.7017 14.7563C10.7068 14.7606 10.7119 14.7648 10.7172 14.7688C10.8638 14.8802 11.0729 14.8517 11.1842 14.7051L11.5892 14.1724C11.695 14.0332 11.6752 13.8359 11.5439 13.7204C11.5024 13.6839 11.4674 13.6517 11.439 13.624C10.757 12.9582 10.3335 12.0286 10.3335 11.0001C10.3335 9.98204 10.7484 9.06091 11.4183 8.39654Z" fill="white" fill-opacity="0.7"/>
<path d="M19.0002 11.0001C19.0002 12.4737 18.3626 13.7985 17.3483 14.7136C17.3338 14.7267 17.3177 14.7409 17.2998 14.7563C17.1604 14.8767 16.95 14.8613 16.8296 14.722C16.8251 14.7167 16.8207 14.7113 16.8165 14.7058L16.4103 14.1713C16.3046 14.0322 16.3242 13.8351 16.4552 13.7196C16.5219 13.6608 16.5759 13.6103 16.6174 13.5681C17.2665 12.9066 17.6668 12.0001 17.6668 11.0001C17.6668 10.0123 17.2762 9.11574 16.6411 8.45644C16.5943 8.4079 16.5321 8.34935 16.4546 8.2808C16.3238 8.16522 16.3043 7.9683 16.4099 7.82934L16.8158 7.29528C16.9272 7.14871 17.1363 7.12021 17.2829 7.2316C17.2882 7.23562 17.2934 7.2398 17.2984 7.24414C17.3468 7.28574 17.3877 7.32218 17.421 7.35346C18.393 8.26562 19.0002 9.56194 19.0002 11.0001Z" fill="white" fill-opacity="0.7"/>
<path d="M31.0305 7.444C32.0865 7.444 32.9625 7.716 33.6585 8.26C34.3545 8.804 34.8145 9.544 35.0385 10.48H33.2625C33.0785 10.024 32.7905 9.664 32.3985 9.4C32.0145 9.136 31.5505 9.004 31.0065 9.004C30.5585 9.004 30.1545 9.116 29.7945 9.34C29.4345 9.564 29.1545 9.884 28.9545 10.3C28.7545 10.716 28.6545 11.204 28.6545 11.764C28.6545 12.316 28.7545 12.8 28.9545 13.216C29.1545 13.632 29.4345 13.952 29.7945 14.176C30.1545 14.4 30.5585 14.512 31.0065 14.512C31.5505 14.512 32.0145 14.38 32.3985 14.116C32.7905 13.852 33.0785 13.492 33.2625 13.036H35.0385C34.8145 13.972 34.3545 14.712 33.6585 15.256C32.9625 15.8 32.0865 16.072 31.0305 16.072C30.2225 16.072 29.5065 15.892 28.8825 15.532C28.2665 15.164 27.7865 14.652 27.4425 13.996C27.1065 13.34 26.9385 12.596 26.9385 11.764C26.9385 10.924 27.1065 10.176 27.4425 9.52C27.7865 8.864 28.2665 8.356 28.8825 7.996C29.4985 7.628 30.2145 7.444 31.0305 7.444ZM44.2879 7.528V16H42.5839V12.316H38.9599V16H37.2679V7.528H38.9599V10.96H42.5839V7.528H44.2879ZM51.9426 14.296H48.5466L47.9466 16H46.1586L49.2786 7.624H51.2106L54.3186 16H52.5306L51.9426 14.296ZM51.4866 13.012L50.2386 9.436L48.9906 13.012H51.4866ZM63.3678 16H61.6758L57.8838 10.24V16H56.1918V7.528H57.8838L61.6758 13.336V7.528H63.3678V16ZM73.0349 16H71.3429L67.5509 10.24V16H65.8589V7.528H67.5509L71.3429 13.336V7.528H73.0349V16ZM77.2179 8.872V11.068H80.2179V12.364H77.2179V14.644H80.5779V16H75.5259V7.528H80.5779V8.872H77.2179ZM84.4826 14.704H87.3266V16H82.7906V7.528H84.4826V14.704Z" fill="white" fill-opacity="0.7"/>
</svg>
