<svg width="85" height="24" viewBox="0 0 85 24" fill="none" xmlns="http://www.w3.org/2000/svg">
<rect width="85" height="24" rx="10" fill="#8A99A8" fill-opacity="0.25"/>
<path fill-rule="evenodd" clip-rule="evenodd" d="M20.1332 9.3999L17.9999 10.9999V7.99992C17.9999 7.63171 17.7014 7.33325 17.3333 7.33325H7.99992C7.63175 7.33325 7.33325 7.63171 7.33325 7.99992V15.9999C7.33325 16.3681 7.63175 16.6666 7.99992 16.6666H17.3333C17.7014 16.6666 17.9999 16.3681 17.9999 15.9999V12.9999L20.1332 14.5999C20.1909 14.6432 20.2611 14.6666 20.3333 14.6666C20.5173 14.6666 20.6666 14.5173 20.6666 14.3333V9.66659C20.6666 9.59444 20.6432 9.52429 20.5999 9.46659C20.4895 9.3193 20.2805 9.28947 20.1332 9.3999ZM8.66659 15.3333V8.66659H16.6666V15.3333H8.66659Z" fill="white" fill-opacity="0.7"/>
<path d="M30.9245 7.444C31.9805 7.444 32.8565 7.716 33.5525 8.26C34.2485 8.804 34.7085 9.544 34.9325 10.48H33.1565C32.9725 10.024 32.6845 9.664 32.2925 9.4C31.9085 9.136 31.4445 9.004 30.9005 9.004C30.4525 9.004 30.0485 9.116 29.6885 9.34C29.3285 9.564 29.0485 9.884 28.8485 10.3C28.6485 10.716 28.5485 11.204 28.5485 11.764C28.5485 12.316 28.6485 12.8 28.8485 13.216C29.0485 13.632 29.3285 13.952 29.6885 14.176C30.0485 14.4 30.4525 14.512 30.9005 14.512C31.4445 14.512 31.9085 14.38 32.2925 14.116C32.6845 13.852 32.9725 13.492 33.1565 13.036H34.9325C34.7085 13.972 34.2485 14.712 33.5525 15.256C32.8565 15.8 31.9805 16.072 30.9245 16.072C30.1165 16.072 29.4005 15.892 28.7765 15.532C28.1605 15.164 27.6805 14.652 27.3365 13.996C27.0005 13.34 26.8325 12.596 26.8325 11.764C26.8325 10.924 27.0005 10.176 27.3365 9.52C27.6805 8.864 28.1605 8.356 28.7765 7.996C29.3925 7.628 30.1085 7.444 30.9245 7.444ZM41.134 7.408C41.926 7.408 42.642 7.592 43.282 7.96C43.93 8.328 44.438 8.844 44.806 9.508C45.182 10.164 45.37 10.908 45.37 11.74C45.37 12.572 45.182 13.32 44.806 13.984C44.438 14.648 43.93 15.164 43.282 15.532C42.642 15.9 41.926 16.084 41.134 16.084C40.342 16.084 39.622 15.9 38.974 15.532C38.334 15.164 37.826 14.648 37.45 13.984C37.082 13.32 36.898 12.572 36.898 11.74C36.898 10.908 37.082 10.164 37.45 9.508C37.826 8.844 38.334 8.328 38.974 7.96C39.622 7.592 40.342 7.408 41.134 7.408ZM41.134 8.968C40.638 8.968 40.202 9.08 39.826 9.304C39.45 9.528 39.154 9.852 38.938 10.276C38.73 10.692 38.626 11.18 38.626 11.74C38.626 12.3 38.73 12.792 38.938 13.216C39.154 13.632 39.45 13.952 39.826 14.176C40.202 14.4 40.638 14.512 41.134 14.512C41.63 14.512 42.066 14.4 42.442 14.176C42.818 13.952 43.11 13.632 43.318 13.216C43.534 12.792 43.642 12.3 43.642 11.74C43.642 11.18 43.534 10.692 43.318 10.276C43.11 9.852 42.818 9.528 42.442 9.304C42.066 9.08 41.63 8.968 41.134 8.968ZM49.2345 7.528V12.496C49.2345 13.16 49.3785 13.66 49.6665 13.996C49.9625 14.324 50.3865 14.488 50.9385 14.488C51.4825 14.488 51.8985 14.324 52.1865 13.996C52.4825 13.66 52.6305 13.16 52.6305 12.496V7.528H54.3105V12.496C54.3105 13.28 54.1625 13.944 53.8665 14.488C53.5785 15.024 53.1745 15.424 52.6545 15.688C52.1425 15.952 51.5585 16.084 50.9025 16.084C49.8865 16.084 49.0745 15.78 48.4665 15.172C47.8585 14.564 47.5545 13.672 47.5545 12.496V7.528H49.2345ZM61.1699 16L59.1899 12.7H58.4459V16H56.7539V7.528H59.9819C60.9659 7.528 61.7139 7.768 62.2259 8.248C62.7459 8.728 63.0059 9.36 63.0059 10.144C63.0059 10.784 62.8259 11.32 62.4659 11.752C62.1139 12.184 61.6019 12.472 60.9299 12.616L63.0419 16H61.1699ZM58.4459 11.536H59.8379C60.8059 11.536 61.2899 11.108 61.2899 10.252C61.2899 9.844 61.1699 9.528 60.9299 9.304C60.6979 9.072 60.3339 8.956 59.8379 8.956H58.4459V11.536ZM70.9284 13.684C70.9284 14.116 70.8204 14.516 70.6044 14.884C70.3884 15.244 70.0684 15.536 69.6444 15.76C69.2204 15.976 68.7044 16.084 68.0964 16.084C67.4964 16.084 66.9604 15.984 66.4884 15.784C66.0164 15.576 65.6364 15.28 65.3484 14.896C65.0684 14.512 64.9084 14.064 64.8684 13.552H66.6684C66.7084 13.896 66.8444 14.184 67.0764 14.416C67.3164 14.64 67.6324 14.752 68.0244 14.752C68.3764 14.752 68.6444 14.66 68.8284 14.476C69.0204 14.284 69.1164 14.04 69.1164 13.744C69.1164 13.48 69.0404 13.264 68.8884 13.096C68.7364 12.92 68.5444 12.78 68.3124 12.676C68.0804 12.572 67.7604 12.452 67.3524 12.316C66.8244 12.14 66.3924 11.968 66.0564 11.8C65.7204 11.624 65.4324 11.372 65.1924 11.044C64.9604 10.716 64.8444 10.288 64.8444 9.76C64.8444 9.032 65.1044 8.46 65.6244 8.044C66.1524 7.62 66.8484 7.408 67.7124 7.408C68.6084 7.408 69.3204 7.624 69.8484 8.056C70.3844 8.488 70.6884 9.064 70.7604 9.784H68.9364C68.8884 9.48 68.7604 9.232 68.5524 9.04C68.3444 8.84 68.0604 8.74 67.7004 8.74C67.3884 8.74 67.1364 8.824 66.9444 8.992C66.7524 9.152 66.6564 9.388 66.6564 9.7C66.6564 9.948 66.7284 10.156 66.8724 10.324C67.0244 10.484 67.2124 10.616 67.4364 10.72C67.6684 10.824 67.9804 10.94 68.3724 11.068C68.9164 11.26 69.3564 11.44 69.6924 11.608C70.0364 11.776 70.3284 12.028 70.5684 12.364C70.8084 12.7 70.9284 13.14 70.9284 13.684ZM74.8268 8.872V11.068H77.8268V12.364H74.8268V14.644H78.1868V16H73.1348V7.528H78.1868V8.872H74.8268Z" fill="white" fill-opacity="0.7"/>
</svg>
