<svg width="154" height="54" viewBox="0 0 154 54" fill="none" xmlns="http://www.w3.org/2000/svg">
<path d="M56 54C60.4183 54 64 50.4183 64 46C64 41.5817 60.4183 38 56 38C51.5817 38 48 41.5817 48 46C48 50.4183 51.5817 54 56 54Z" fill="#9266CC"/>
<path d="M146 24C150.418 24 154 20.4183 154 16C154 11.5817 150.418 8 146 8C141.582 8 138 11.5817 138 16C138 20.4183 141.582 24 146 24Z" fill="#9266CC"/>
<path d="M6 24C9.31371 24 12 21.3137 12 18C12 14.6863 9.31371 12 6 12C2.68629 12 0 14.6863 0 18C0 21.3137 2.68629 24 6 24Z" fill="#5C913B"/>
<path d="M140 51C141.657 51 143 49.6569 143 48C143 46.3431 141.657 45 140 45C138.343 45 137 46.3431 137 48C137 49.6569 138.343 51 140 51Z" fill="#5C913B"/>
<path d="M85 12C88.3137 12 91 9.31371 91 6C91 2.68629 88.3137 0 85 0C81.6863 0 79 2.68629 79 6C79 9.31371 81.6863 12 85 12Z" fill="#FFCC4D"/>
</svg>
