<svg width="177" height="49" viewBox="0 0 177 49" fill="none" xmlns="http://www.w3.org/2000/svg">
<path d="M129 46C124.582 46 121 42.4183 121 38C121 33.5817 124.582 30 129 30C133.418 30 137 33.5817 137 38C137 42.4183 133.418 46 129 46Z" fill="#9266CC"/>
<path d="M39 16C34.5817 16 31 12.4183 31 8C31 3.58172 34.5817 0 39 0C43.4183 0 47 3.58172 47 8C47 12.4183 43.4183 16 39 16Z" fill="#9266CC"/>
<path d="M59 49C57.3431 49 56 47.6569 56 46C56 44.3431 57.3431 43 59 43C60.6569 43 62 44.3431 62 46C62 47.6569 60.6569 49 59 49Z" fill="#9266CC"/>
<path d="M171 24C167.686 24 165 21.3137 165 18C165 14.6863 167.686 12 171 12C174.314 12 177 14.6863 177 18C177 21.3137 174.314 24 171 24Z" fill="#5C913B"/>
<path d="M100 14C96.6863 14 94 11.3137 94 8C94 4.68629 96.6863 2 100 2C103.314 2 106 4.68629 106 8C106 11.3137 103.314 14 100 14Z" fill="#FFCC4D"/>
<path d="M3 48C1.34315 48 0 46.6569 0 45C0 43.3431 1.34315 42 3 42C4.65685 42 6 43.3431 6 45C6 46.6569 4.65685 48 3 48Z" fill="#FFCC4D"/>
</svg>
