<svg width="20" height="20" viewBox="0 0 20 20" fill="none" xmlns="http://www.w3.org/2000/svg">
<path d="M15.3636 14.5982L17.7711 17.0046C17.8834 17.1208 17.9455 17.2765 17.9441 17.4381C17.9427 17.5997 17.8779 17.7543 17.7636 17.8686C17.6493 17.9829 17.4947 18.0477 17.3331 18.0491C17.1715 18.0505 17.0158 17.9884 16.8996 17.8761L14.492 15.4685C12.9187 16.8165 10.8845 17.5027 8.81614 17.3831C6.74783 17.2636 4.80621 16.3475 3.39871 14.8273C1.99121 13.307 1.22724 11.3007 1.26711 9.22932C1.30698 7.15794 2.1476 5.1825 3.61256 3.71754C5.07752 2.25258 7.05296 1.41196 9.12434 1.37209C11.1957 1.33222 13.2021 2.09619 14.7223 3.50369C16.2426 4.91119 17.1586 6.85281 17.2781 8.92112C17.3977 10.9894 16.7115 13.0237 15.3636 14.597V14.5982ZM9.27866 16.1638C11.0769 16.1638 12.8014 15.4495 14.073 14.1779C15.3445 12.9064 16.0588 11.1819 16.0588 9.38364C16.0588 7.58542 15.3445 5.86086 14.073 4.58933C12.8014 3.3178 11.0769 2.60346 9.27866 2.60346C7.48044 2.60346 5.75588 3.3178 4.48435 4.58933C3.21282 5.86086 2.49848 7.58542 2.49848 9.38364C2.49848 11.1819 3.21282 12.9064 4.48435 14.1779C5.75588 15.4495 7.48044 16.1638 9.27866 16.1638Z" fill="white"/>
</svg>
