<svg width="69" height="69" viewBox="0 0 69 69" fill="none" xmlns="http://www.w3.org/2000/svg">
<g filter="url(#filter0_b_175_5206)">
<path d="M58.1706 33.0853C58.1706 46.9399 46.9399 58.1706 33.0853 58.1706C19.2307 58.1706 8 46.9399 8 33.0853C8 19.2332 19.2307 8 33.0853 8C46.9399 8 58.1706 19.2332 58.1706 33.0853Z" fill="url(#paint0_linear_175_5206)"/>
</g>
<g opacity="0.5" filter="url(#filter1_f_175_5206)">
<path d="M49.1604 33.0616C49.1604 41.8833 42.0094 49.0343 33.1877 49.0343C24.366 49.0343 17.215 41.8833 17.215 33.0616C17.215 24.2414 24.366 17.0889 33.1877 17.0889C42.0094 17.0889 49.1604 24.2414 49.1604 33.0616Z" fill="#9F66FF"/>
</g>
<g filter="url(#filter2_b_175_5206)">
<path d="M68 42.9149C68 56.7695 56.7693 68.0002 42.9147 68.0002C29.0601 68.0002 17.8294 56.7695 17.8294 42.9149C17.8294 29.0628 29.0601 17.8296 42.9147 17.8296C56.7693 17.8296 68 29.0628 68 42.9149Z" fill="#C29DFF" fill-opacity="0.26"/>
<path d="M42.9147 68.5002C57.0454 68.5002 68.5 57.0457 68.5 42.9149C68.5 28.7867 57.0455 17.3296 42.9147 17.3296C28.7839 17.3296 17.3294 28.7867 17.3294 42.9149C17.3294 57.0457 28.7839 68.5002 42.9147 68.5002Z" stroke="url(#paint1_linear_175_5206)" stroke-linecap="round" stroke-linejoin="round"/>
</g>
<g filter="url(#filter3_bd_175_5206)">
<path d="M52.9491 42.9272C52.9491 43.5612 52.7496 44.1976 52.3505 44.7072C52.2756 44.8072 51.9264 45.2193 51.6521 45.4875L51.5024 45.6338C49.4072 47.8552 44.1942 51.1959 41.5502 52.2664C41.5502 52.2907 39.9788 52.9272 39.2306 52.9491H39.1308C37.9834 52.9491 36.9109 52.3176 36.3621 51.2934C36.0628 50.7302 35.7885 49.0964 35.7635 49.0745C35.539 47.609 35.3894 45.3656 35.3894 42.9028C35.3894 40.3205 35.539 37.9772 35.8134 36.5385C35.8134 36.5141 36.0878 35.1974 36.2624 34.7584C36.5367 34.1269 37.0356 33.588 37.6592 33.2466C38.158 33.0052 38.6818 32.8809 39.2306 32.8809C39.8042 32.9077 40.8768 33.271 41.3008 33.4417C44.0944 34.5146 49.4322 38.0259 51.4775 40.1718C51.8267 40.5131 52.2008 40.9301 52.3006 41.0252C52.7246 41.5617 52.9491 42.22 52.9491 42.9272Z" fill="url(#paint2_linear_175_5206)"/>
<path d="M52.193 44.5839L52.193 44.5839L52.1903 44.5874C52.1219 44.6789 51.7795 45.0833 51.5123 45.3445L51.3626 45.4908L51.3625 45.4907L51.3569 45.4966C50.3257 46.59 48.5143 47.9703 46.6222 49.2146C44.731 50.4583 42.7794 51.5529 41.4752 52.081L41.3502 52.1316V52.1406C41.3143 52.1559 41.2701 52.174 41.2189 52.1945C41.063 52.2567 40.8465 52.338 40.6068 52.4192C40.1197 52.5844 39.568 52.7384 39.2275 52.7491H39.1308C38.0565 52.7491 37.0522 52.1576 36.5386 51.1992C36.4038 50.9455 36.2654 50.4242 36.155 49.9367C36.1009 49.6982 36.0553 49.4761 36.0214 49.311L36.0211 49.3096C36.0044 49.2282 35.9902 49.1594 35.9795 49.1103C35.9742 49.0858 35.9691 49.0638 35.9646 49.0466C35.9629 49.0399 35.9607 49.0316 35.958 49.0231C35.7373 47.5705 35.5894 45.3476 35.5894 42.9028C35.5894 40.3243 35.739 37.9959 36.0099 36.576L36.0134 36.5574V36.5545C36.0152 36.5448 36.0179 36.5307 36.0216 36.5123C36.0293 36.4741 36.0405 36.4198 36.0546 36.3534C36.0828 36.2208 36.1223 36.0415 36.1672 35.8494C36.2579 35.4608 36.3664 35.0393 36.4471 34.8352C36.7027 34.2487 37.1677 33.745 37.7508 33.4245C38.2208 33.1978 38.7118 33.0816 39.2258 33.0809C39.4867 33.0939 39.876 33.1847 40.2654 33.2992C40.6524 33.413 41.0204 33.5444 41.2261 33.6272L41.2261 33.6273L41.2291 33.6284C42.6056 34.1571 44.6242 35.2937 46.5596 36.5713C48.4953 37.8491 50.3259 39.2535 51.3327 40.3097L51.3326 40.3098L51.3377 40.3148C51.5092 40.4825 51.6877 40.6696 51.837 40.828C51.8715 40.8646 51.9048 40.9001 51.9364 40.9337C52.0296 41.033 52.1072 41.1156 52.1517 41.1594C52.5416 41.6574 52.7491 42.2679 52.7491 42.9272C52.7491 43.5203 52.5623 44.1124 52.193 44.5839ZM36.0116 36.5646L36.0117 36.5641C36.0111 36.5683 36.0108 36.5692 36.0116 36.5646Z" stroke="url(#paint3_linear_175_5206)" stroke-width="0.4"/>
</g>
<defs>
<filter id="filter0_b_175_5206" x="-5" y="-5" width="76.1706" height="76.1704" filterUnits="userSpaceOnUse" color-interpolation-filters="sRGB">
<feFlood flood-opacity="0" result="BackgroundImageFix"/>
<feGaussianBlur in="BackgroundImageFix" stdDeviation="6.5"/>
<feComposite in2="SourceAlpha" operator="in" result="effect1_backgroundBlur_175_5206"/>
<feBlend mode="normal" in="SourceGraphic" in2="effect1_backgroundBlur_175_5206" result="shape"/>
</filter>
<filter id="filter1_f_175_5206" x="0.215019" y="0.0888672" width="65.9454" height="65.9453" filterUnits="userSpaceOnUse" color-interpolation-filters="sRGB">
<feFlood flood-opacity="0" result="BackgroundImageFix"/>
<feBlend mode="normal" in="SourceGraphic" in2="BackgroundImageFix" result="shape"/>
<feGaussianBlur stdDeviation="8.5" result="effect1_foregroundBlur_175_5206"/>
</filter>
<filter id="filter2_b_175_5206" x="-7.17065" y="-7.17041" width="100.171" height="100.17" filterUnits="userSpaceOnUse" color-interpolation-filters="sRGB">
<feFlood flood-opacity="0" result="BackgroundImageFix"/>
<feGaussianBlur in="BackgroundImageFix" stdDeviation="12"/>
<feComposite in2="SourceAlpha" operator="in" result="effect1_backgroundBlur_175_5206"/>
<feBlend mode="normal" in="SourceGraphic" in2="effect1_backgroundBlur_175_5206" result="shape"/>
</filter>
<filter id="filter3_bd_175_5206" x="20.3894" y="17.8809" width="47.5597" height="50.0684" filterUnits="userSpaceOnUse" color-interpolation-filters="sRGB">
<feFlood flood-opacity="0" result="BackgroundImageFix"/>
<feGaussianBlur in="BackgroundImageFix" stdDeviation="7.5"/>
<feComposite in2="SourceAlpha" operator="in" result="effect1_backgroundBlur_175_5206"/>
<feColorMatrix in="SourceAlpha" type="matrix" values="0 0 0 0 0 0 0 0 0 0 0 0 0 0 0 0 0 0 127 0" result="hardAlpha"/>
<feOffset dx="5" dy="5"/>
<feGaussianBlur stdDeviation="5"/>
<feColorMatrix type="matrix" values="0 0 0 0 1 0 0 0 0 0.321569 0 0 0 0 0.54902 0 0 0 0.5 0"/>
<feBlend mode="normal" in2="effect1_backgroundBlur_175_5206" result="effect2_dropShadow_175_5206"/>
<feBlend mode="normal" in="SourceGraphic" in2="effect2_dropShadow_175_5206" result="shape"/>
</filter>
<linearGradient id="paint0_linear_175_5206" x1="36.7789" y1="36.445" x2="-7.30556" y2="57.8798" gradientUnits="userSpaceOnUse">
<stop stop-color="#BC94FF"/>
<stop offset="1" stop-color="#9F66FF"/>
</linearGradient>
<linearGradient id="paint1_linear_175_5206" x1="25.8157" y1="23.6745" x2="57.8192" y2="63.3117" gradientUnits="userSpaceOnUse">
<stop stop-color="white" stop-opacity="0.25"/>
<stop offset="1" stop-color="white" stop-opacity="0"/>
</linearGradient>
<linearGradient id="paint2_linear_175_5206" x1="51.7041" y1="36.5048" x2="32.1394" y2="37.0629" gradientUnits="userSpaceOnUse">
<stop stop-color="white"/>
<stop offset="1" stop-color="white" stop-opacity="0.2"/>
</linearGradient>
<linearGradient id="paint3_linear_175_5206" x1="38.1846" y1="35.2188" x2="51.2378" y2="49.3647" gradientUnits="userSpaceOnUse">
<stop stop-color="white" stop-opacity="0.25"/>
<stop offset="1" stop-color="white" stop-opacity="0"/>
</linearGradient>
</defs>
</svg>
